# xmcd
# 
# Track frame offsets:
#     150
#     32848
#     75073
#     127857
#     136099
# 
# Disc length: 1947
# 
# Revision: 0
# Processed by: cddbd v1.5.2PL0 Copyright (c) Steve Scherf et al.
# Submitted via: fre:ac v1.0.17
# 
DISCID=2b079905
DTITLE=高河ゆん - 佐藤君と田中さん - The blood highschool 第２巻限定
DYEAR=0
DGENRE=Anime
TTITLE0=放課後ハイスクール／１
TTITLE1=放課後ハイスクール／２
TTITLE2=放課後ハイスクール／３
TTITLE3=キャストコメント①
TTITLE4=キャストコメント②
EXTD=
EXTT0=
EXTT1=
EXTT2=
EXTT3=
EXTT4=
PLAYORDER=
